<svg width="640" height="512" xmlns="http://www.w3.org/2000/svg" role="img" class="svg-inline--fa fa-audible fa-w-20" data-icon="audible" data-prefix="fab" focusable="false" aria-hidden="true">

 <g>
  <title>Layer 1</title>
  <path id="svg_1" d="m641,196.9l0,54l-320,200l-320,-199.9l0,-54c106.66667,66.66667 213.33333,133.33333 320,200m125.5,-128.1l47.1,-29.4c-37.2,-55.8 -100.7,-92.6 -172.7,-92.6c-72,0 -135.5,36.7 -172.6,92.4l0.3,0c2.5,-2.3 5.1,-4.5 7.7,-6.7c89.7,-74.4 219.4,-58.1 290.2,36.3zm-220.1,18.8c16.9,-11.9 36.5,-18.7 57.4,-18.7c34.4,0 65.2,18.4 86.4,47.6l45.4,-28.4c-20.9,-29.9 -55.6,-49.5 -94.8,-49.5c-38.9,0 -73.4,19.4 -94.4,49zm-121.8,-129.6c131.8,-104.3 318.2,-76.4 417.5,62.1l0.7,1l48.8,-30.4c-53.5,-81.7 -145.8,-135.7 -250.7,-135.7c-103.5,0 -196.6,53.5 -250.5,135.6c9.9,-10.5 22.7,-23.5 34.2,-32.6zm467,32.7z" fill="#DDDDDD"/>
 </g>
</svg>